<svg width="21px" height="24px" viewBox="0 0 21 24" version="1.1" xmlns="http://www.w3.org/2000/svg" xmlns:xlink="http://www.w3.org/1999/xlink">
    <!-- Generator: Sketch 62 (91390) - https://sketch.com -->
    <title>形状</title>
    <desc>Created with Sketch.</desc>
    <g id="Page-1" stroke="none" stroke-width="1" fill="none" fill-rule="evenodd">
        <g id="logo" transform="translate(-0.301270, 0.000000)" fill="#409EFF">
            <path d="M10.693575,0 L21.0858799,6 L21.0858799,18 L10.693575,24 L0.301270189,18 L0.301270189,6 L10.693575,0 Z M10.7751141,2.4 L2.46127019,7.2 L2.46127019,16.8 L5.49179819,18.549696 L14.6183129,13.2806156 L14.6568629,13.2594995 C15.0947441,13.0323254 15.6346109,13.1752936 15.9029247,13.5883145 L15.9296973,13.632 L15.9508134,13.67055 C16.1779875,14.1084312 16.0350193,14.648298 15.6219984,14.9166118 L15.5783129,14.9433844 L7.41179819,19.658304 L10.7751141,21.6 L19.0889579,16.8 L19.0889579,7.2 L16.0581342,5.450304 L6.93191525,10.7193844 L6.89336527,10.7405005 C6.45548401,10.9676746 5.91561721,10.8247064 5.64730346,10.4116855 L5.62053086,10.368 L5.5994147,10.32945 C5.37224068,9.89156876 5.51520881,9.35170196 5.92822972,9.08338821 L5.97191525,9.05661561 L14.1381342,4.341696 L10.7751141,2.4 Z M12.6615403,9.80349945 C13.1145209,9.56849184 13.6766419,9.72959355 13.9343747,10.176 C14.1909199,10.6203493 14.0518614,11.1845417 13.626479,11.4607397 L13.5829904,11.4873844 L8.92723778,14.1753844 L8.8886878,14.1965005 C8.43570719,14.4315082 7.87358628,14.2704064 7.61585339,13.824 C7.35930822,13.3796507 7.49836673,12.8154583 7.92374917,12.5392603 L7.96723778,12.5126156 L12.6229904,9.82461561 L12.6615403,9.80349945 Z" id="形状"></path>
        </g>
    </g>
</svg>